<svg preserveAspectRatio="none" width="100%" height="100%" overflow="visible" style="display: block;" viewBox="0 0 77.8825 77.8825" fill="none" xmlns="http://www.w3.org/2000/svg">
<g id="Icon" filter="url(#filter0_dd_0_174)">
<g id="X">
<path fill-rule="evenodd" clip-rule="evenodd" d="M7.6344 7.63441C11.6253 3.64353 18.0958 3.64353 22.0866 7.63441L70.248 55.7959C74.2389 59.7867 74.2389 66.2572 70.248 70.2481C66.2572 74.239 59.7867 74.239 55.7958 70.2481L7.6344 22.0866C3.64353 18.0958 3.64353 11.6253 7.6344 7.63441Z" fill="url(#paint0_linear_0_174)"/>
<path fill-rule="evenodd" clip-rule="evenodd" d="M70.2481 7.63441C74.239 11.6253 74.239 18.0958 70.2481 22.0866L22.0867 70.2481C18.0958 74.239 11.6253 74.239 7.63446 70.2481C3.64359 66.2572 3.64359 59.7867 7.63446 55.7959L55.7959 7.63441C59.7868 3.64353 66.2572 3.64353 70.2481 7.63441Z" fill="url(#paint1_linear_0_174)"/>
</g>
</g>
<defs>
<filter id="filter0_dd_0_174" x="7.16606e-08" y="7.16607e-08" width="77.8825" height="77.8825" filterUnits="userSpaceOnUse" color-interpolation-filters="sRGB">
<feFlood flood-opacity="0" result="BackgroundImageFix"/>
<feColorMatrix in="SourceAlpha" type="matrix" values="0 0 0 0 0 0 0 0 0 0 0 0 0 0 0 0 0 0 127 0" result="hardAlpha"/>
<feOffset/>
<feGaussianBlur stdDeviation="1.16031"/>
<feComposite in2="hardAlpha" operator="out"/>
<feColorMatrix type="matrix" values="0 0 0 0 0 0 0 0 0 0 0 0 0 0 0 0 0 0 0.4 0"/>
<feBlend mode="normal" in2="BackgroundImageFix" result="effect1_dropShadow_0_174"/>
<feColorMatrix in="SourceAlpha" type="matrix" values="0 0 0 0 0 0 0 0 0 0 0 0 0 0 0 0 0 0 127 0" result="hardAlpha"/>
<feOffset/>
<feGaussianBlur stdDeviation="2.32063"/>
<feComposite in2="hardAlpha" operator="out"/>
<feColorMatrix type="matrix" values="0 0 0 0 0 0 0 0 0 0 0 0 0 0 0 0 0 0 0.7 0"/>
<feBlend mode="normal" in2="effect1_dropShadow_0_174" result="effect2_dropShadow_0_174"/>
<feBlend mode="normal" in="SourceGraphic" in2="effect2_dropShadow_0_174" result="shape"/>
</filter>
<linearGradient id="paint0_linear_0_174" x1="38.9413" y1="4.64125" x2="38.6353" y2="73.2408" gradientUnits="userSpaceOnUse">
<stop stop-color="white"/>
<stop offset="1" stop-color="#DADEE8"/>
</linearGradient>
<linearGradient id="paint1_linear_0_174" x1="38.9413" y1="4.64125" x2="38.6353" y2="73.2408" gradientUnits="userSpaceOnUse">
<stop stop-color="white"/>
<stop offset="1" stop-color="#DADEE8"/>
</linearGradient>
</defs>
</svg>
