<svg preserveAspectRatio="none" width="100%" height="100%" overflow="visible" style="display: block;" viewBox="0 0 111.881 57.7408" fill="none" xmlns="http://www.w3.org/2000/svg">
<g id="Fake Reflection Shape" filter="url(#filter0_i_0_181)">
<path d="M111.881 8.40153C111.881 39.3667 86.8357 57.7408 55.9406 57.7408C30.2079 57.7408 -5.08484e-07 38.1616 0 8.40153C3.27979e-07 -10.7941 30.7673 9.91158 55.9406 9.91158C81.1139 9.91157 111.881 -11.3458 111.881 8.40153Z" fill="url(#paint0_radial_0_181)"/>
<path d="M111.881 8.40153C111.881 39.3667 86.8357 57.7408 55.9406 57.7408C30.2079 57.7408 -5.08484e-07 38.1616 0 8.40153C3.27979e-07 -10.7941 30.7673 9.91158 55.9406 9.91158C81.1139 9.91157 111.881 -11.3458 111.881 8.40153Z" fill="var(--fill-1, white)" fill-opacity="0.2"/>
</g>
<defs>
<filter id="filter0_i_0_181" x="0" y="-2.90795" width="111.881" height="60.6487" filterUnits="userSpaceOnUse" color-interpolation-filters="sRGB">
<feFlood flood-opacity="0" result="BackgroundImageFix"/>
<feBlend mode="normal" in="SourceGraphic" in2="BackgroundImageFix" result="shape"/>
<feColorMatrix in="SourceAlpha" type="matrix" values="0 0 0 0 0 0 0 0 0 0 0 0 0 0 0 0 0 0 127 0" result="hardAlpha"/>
<feOffset dy="-2.90795"/>
<feGaussianBlur stdDeviation="7.26987"/>
<feComposite in2="hardAlpha" operator="arithmetic" k2="-1" k3="1"/>
<feColorMatrix type="matrix" values="0 0 0 0 1 0 0 0 0 1 0 0 0 0 1 0 0 0 0.05 0"/>
<feBlend mode="normal" in2="shape" result="effect1_innerShadow_0_181"/>
</filter>
<radialGradient id="paint0_radial_0_181" cx="0" cy="0" r="1" gradientUnits="userSpaceOnUse" gradientTransform="translate(55.9405 -0.43745) rotate(90) scale(58.1782 93.2132)">
<stop stop-color="#0A2870"/>
<stop offset="0.45" stop-color="#103180"/>
<stop offset="1" stop-color="#E6EDFF"/>
</radialGradient>
</defs>
</svg>
