<svg preserveAspectRatio="none" width="100%" height="100%" overflow="visible" style="display: block;" viewBox="0 0 24.0006 26" fill="none" xmlns="http://www.w3.org/2000/svg">
<g id="Group 1648">
<path id="Vector (Stroke)" d="M13.1168 0.123535C12.4777 -0.0780529 11.7807 -0.0320025 11.1742 0.254931C10.5053 0.5714 9.99486 1.15965 9.80337 1.88442L9.22195 4.08505C9.05764 4.70694 8.81806 5.30819 8.50847 5.87722C8.09469 6.63775 7.43257 7.28495 6.63256 7.96181L4.8741 9.44956C4.13309 10.0765 3.73882 11.0208 3.82409 11.989L4.81673 23.2602C4.95449 24.8244 6.28022 26 7.84003 26H13.5217C18.2222 26 22.3018 22.7788 23.0922 18.2914L23.9545 13.3957C24.2813 11.5404 22.8282 9.88104 20.9648 9.88104H14.6323L14.6276 9.88085C14.6255 9.88068 14.6231 9.8802 14.6231 9.8802L14.6193 9.87895L14.6159 9.87681L15.4247 5.0303C15.5796 4.10191 15.5353 3.15191 15.2948 2.24159C15.033 1.25071 14.2643 0.485461 13.294 0.17942L13.1168 0.123535Z" fill="var(--fill-0, #65BEFE)"/>
<path id="Vector (Stroke)_2" d="M1.99614 10.7933C1.94919 10.2601 1.49079 9.85846 0.956093 9.88196C0.4214 9.90546 0 10.3458 0 10.881V24.4152C0 25.3066 0.730347 26 1.59486 26C2.51206 26 3.26683 25.2215 3.18365 24.2771L1.99614 10.7933Z" fill="var(--fill-0, #118AD4)"/>
</g>
</svg>
