<svg preserveAspectRatio="none" width="100%" height="100%" overflow="visible" style="display: block;" viewBox="0 0 1041.6 671.6" fill="none" xmlns="http://www.w3.org/2000/svg">
<foreignObject x="0" y="-0.2" width="1041.6" height="671.8"><div xmlns="http://www.w3.org/1999/xhtml" style="backdrop-filter:blur(2px);clip-path:url(#bgblur_0_0_193_clip_path);height:100%;width:100%"></div></foreignObject><g id="Union" filter="url(#filter0_dii_0_193)" data-figma-bg-blur-radius="4">
<path d="M230.121 3.8C232.883 3.8 235.121 6.03858 235.121 8.8V26.9348H1021.8C1024.56 26.9348 1026.8 29.1735 1026.8 31.9348V640.8C1026.8 643.561 1024.56 645.8 1021.8 645.8H19.8C17.0386 645.8 14.8 643.561 14.8 640.8V8.8C14.8 6.03858 17.0386 3.8 19.8 3.8H230.121Z" fill="url(#paint0_linear_0_193)" fill-opacity="0.61" shape-rendering="crispEdges"/>
</g>
<defs>
<filter id="filter0_dii_0_193" x="0" y="-0.2" width="1041.6" height="671.8" filterUnits="userSpaceOnUse" color-interpolation-filters="sRGB">
<feFlood flood-opacity="0" result="BackgroundImageFix"/>
<feColorMatrix in="SourceAlpha" type="matrix" values="0 0 0 0 0 0 0 0 0 0 0 0 0 0 0 0 0 0 127 0" result="hardAlpha"/>
<feOffset dy="11"/>
<feGaussianBlur stdDeviation="7.4"/>
<feComposite in2="hardAlpha" operator="out"/>
<feColorMatrix type="matrix" values="0 0 0 0 0 0 0 0 0 0 0 0 0 0 0 0 0 0 0.25 0"/>
<feBlend mode="normal" in2="BackgroundImageFix" result="effect1_dropShadow_0_193"/>
<feBlend mode="normal" in="SourceGraphic" in2="effect1_dropShadow_0_193" result="shape"/>
<feColorMatrix in="SourceAlpha" type="matrix" values="0 0 0 0 0 0 0 0 0 0 0 0 0 0 0 0 0 0 127 0" result="hardAlpha"/>
<feOffset dy="4"/>
<feGaussianBlur stdDeviation="1"/>
<feComposite in2="hardAlpha" operator="arithmetic" k2="-1" k3="1"/>
<feColorMatrix type="matrix" values="0 0 0 0 1 0 0 0 0 1 0 0 0 0 1 0 0 0 0.25 0"/>
<feBlend mode="normal" in2="shape" result="effect2_innerShadow_0_193"/>
<feColorMatrix in="SourceAlpha" type="matrix" values="0 0 0 0 0 0 0 0 0 0 0 0 0 0 0 0 0 0 127 0" result="hardAlpha"/>
<feOffset dy="-4"/>
<feGaussianBlur stdDeviation="1"/>
<feComposite in2="hardAlpha" operator="arithmetic" k2="-1" k3="1"/>
<feColorMatrix type="matrix" values="0 0 0 0 0 0 0 0 0 0 0 0 0 0 0 0 0 0 0.12 0"/>
<feBlend mode="normal" in2="effect2_innerShadow_0_193" result="effect3_innerShadow_0_193"/>
</filter>
<clipPath id="bgblur_0_0_193_clip_path" transform="translate(0 0.2)"><path d="M230.121 3.8C232.883 3.8 235.121 6.03858 235.121 8.8V26.9348H1021.8C1024.56 26.9348 1026.8 29.1735 1026.8 31.9348V640.8C1026.8 643.561 1024.56 645.8 1021.8 645.8H19.8C17.0386 645.8 14.8 643.561 14.8 640.8V8.8C14.8 6.03858 17.0386 3.8 19.8 3.8H230.121Z"/>
</clipPath><linearGradient id="paint0_linear_0_193" x1="136.695" y1="50.0703" x2="136.695" y2="3.8" gradientUnits="userSpaceOnUse">
<stop stop-color="#2A79AD"/>
<stop offset="0.471954" stop-color="#258CD1"/>
<stop offset="0.501001" stop-color="#5BA3E0"/>
<stop offset="1" stop-color="#65BEFE"/>
</linearGradient>
</defs>
</svg>
