<svg preserveAspectRatio="none" width="100%" height="100%" overflow="visible" style="display: block;" viewBox="0 0 1260.6 695.6" fill="none" xmlns="http://www.w3.org/2000/svg">
<foreignObject x="0" y="-0.2" width="1260.6" height="695.8"><div xmlns="http://www.w3.org/1999/xhtml" style="backdrop-filter:blur(2px);clip-path:url(#bgblur_0_0_186_clip_path);height:100%;width:100%"></div></foreignObject><g id="Union" filter="url(#filter0_dii_0_186)" data-figma-bg-blur-radius="4">
<path d="M277.8 3.8C280.561 3.8 282.8 6.03858 282.8 8.8V27.8H1240.8C1243.56 27.8 1245.8 30.0386 1245.8 32.8V664.8C1245.8 667.561 1243.56 669.8 1240.8 669.8H19.8C17.0386 669.8 14.8 667.561 14.8 664.8V8.8C14.8 6.03858 17.0386 3.8 19.8 3.8H277.8Z" fill="url(#paint0_linear_0_186)" fill-opacity="0.61" shape-rendering="crispEdges"/>
</g>
<defs>
<filter id="filter0_dii_0_186" x="0" y="-0.2" width="1260.6" height="695.8" filterUnits="userSpaceOnUse" color-interpolation-filters="sRGB">
<feFlood flood-opacity="0" result="BackgroundImageFix"/>
<feColorMatrix in="SourceAlpha" type="matrix" values="0 0 0 0 0 0 0 0 0 0 0 0 0 0 0 0 0 0 127 0" result="hardAlpha"/>
<feOffset dy="11"/>
<feGaussianBlur stdDeviation="7.4"/>
<feComposite in2="hardAlpha" operator="out"/>
<feColorMatrix type="matrix" values="0 0 0 0 0 0 0 0 0 0 0 0 0 0 0 0 0 0 0.25 0"/>
<feBlend mode="normal" in2="BackgroundImageFix" result="effect1_dropShadow_0_186"/>
<feBlend mode="normal" in="SourceGraphic" in2="effect1_dropShadow_0_186" result="shape"/>
<feColorMatrix in="SourceAlpha" type="matrix" values="0 0 0 0 0 0 0 0 0 0 0 0 0 0 0 0 0 0 127 0" result="hardAlpha"/>
<feOffset dy="4"/>
<feGaussianBlur stdDeviation="1"/>
<feComposite in2="hardAlpha" operator="arithmetic" k2="-1" k3="1"/>
<feColorMatrix type="matrix" values="0 0 0 0 1 0 0 0 0 1 0 0 0 0 1 0 0 0 0.25 0"/>
<feBlend mode="normal" in2="shape" result="effect2_innerShadow_0_186"/>
<feColorMatrix in="SourceAlpha" type="matrix" values="0 0 0 0 0 0 0 0 0 0 0 0 0 0 0 0 0 0 127 0" result="hardAlpha"/>
<feOffset dy="-4"/>
<feGaussianBlur stdDeviation="1"/>
<feComposite in2="hardAlpha" operator="arithmetic" k2="-1" k3="1"/>
<feColorMatrix type="matrix" values="0 0 0 0 0 0 0 0 0 0 0 0 0 0 0 0 0 0 0.12 0"/>
<feBlend mode="normal" in2="effect2_innerShadow_0_186" result="effect3_innerShadow_0_186"/>
</filter>
<clipPath id="bgblur_0_0_186_clip_path" transform="translate(0 0.2)"><path d="M277.8 3.8C280.561 3.8 282.8 6.03858 282.8 8.8V27.8H1240.8C1243.56 27.8 1245.8 30.0386 1245.8 32.8V664.8C1245.8 667.561 1243.56 669.8 1240.8 669.8H19.8C17.0386 669.8 14.8 667.561 14.8 664.8V8.8C14.8 6.03858 17.0386 3.8 19.8 3.8H277.8Z"/>
</clipPath><linearGradient id="paint0_linear_0_186" x1="163.074" y1="51.8" x2="163.074" y2="3.8" gradientUnits="userSpaceOnUse">
<stop stop-color="#2A79AD"/>
<stop offset="0.471954" stop-color="#258CD1"/>
<stop offset="0.501001" stop-color="#5BA3E0"/>
<stop offset="1" stop-color="#65BEFE"/>
</linearGradient>
</defs>
</svg>
